<svg xmlns="http://www.w3.org/2000/svg" viewBox="0 0 128 128">
  <rect width="128" height="128" rx="20" fill="#2c3e50"/>
  <rect x="20" y="28" width="55" height="6" rx="3" fill="#ecf0f1"/>
  <rect x="20" y="44" width="45" height="5" rx="2.5" fill="#3498db"/>
  <rect x="30" y="57" width="40" height="5" rx="2.5" fill="#2980b9" opacity="0.7"/>
  <rect x="30" y="70" width="35" height="5" rx="2.5" fill="#2980b9" opacity="0.7"/>
  <rect x="20" y="85" width="50" height="5" rx="2.5" fill="#3498db"/>
  <rect x="30" y="98" width="38" height="5" rx="2.5" fill="#2980b9" opacity="0.7"/>
  <rect x="88" y="30" width="22" height="70" rx="4" fill="#34495e"/>
  <rect x="92" y="38" width="14" height="2" rx="1" fill="#ecf0f1" opacity="0.6"/>
  <rect x="92" y="46" width="14" height="2" rx="1" fill="#3498db" opacity="0.8"/>
  <rect x="92" y="54" width="10" height="2" rx="1" fill="#ecf0f1" opacity="0.4"/>
  <rect x="92" y="62" width="14" height="2" rx="1" fill="#3498db" opacity="0.8"/>
  <rect x="92" y="70" width="10" height="2" rx="1" fill="#ecf0f1" opacity="0.4"/>
  <rect x="92" y="78" width="14" height="2" rx="1" fill="#3498db" opacity="0.8"/>
  <rect x="92" y="86" width="10" height="2" rx="1" fill="#ecf0f1" opacity="0.4"/>
</svg>
